<?xml version="1.0" encoding="UTF-8"?>
<svg width="180px" height="101px" viewBox="0 0 180 101" version="1.1" xmlns="http://www.w3.org/2000/svg" xmlns:xlink="http://www.w3.org/1999/xlink">
    <!-- Generator: Sketch 52.6 (67491) - http://www.bohemiancoding.com/sketch -->
    <title>logo-obw/white</title>
    <desc>Created with Sketch.</desc>
    <g id="Mobile-Hi-fi" stroke="none" stroke-width="1" fill="none" fill-rule="evenodd">
        <g id="Mobile-Navigation" transform="translate(-90.000000, -2462.000000)" fill="#FFFFFF">
            <g id="footer" transform="translate(0.000000, 2432.000000)">
                <g id="logo-obw/white" transform="translate(90.000000, 30.000000)">
                    <g id="obw-horizontal-logo_solid" transform="translate(0.000000, -0.000000)">
                        <path d="M45.267033,23.6175824 C43.110989,23.6175824 42.032967,22.2791209 42.032967,19.6021978 C42.032967,16.9912088 43.110989,15.6857143 45.267033,15.6857143 C47.4230769,15.6857143 48.5027473,16.9912088 48.506044,19.6021978 C48.506044,22.2824176 47.4263736,23.6208791 45.267033,23.6175824 Z M31.1093407,32.310989 C29.1873626,32.310989 28.1472527,33.3445055 27.989011,35.4115385 L33.9873626,35.4115385 C34.1126374,33.3445055 33.1549451,32.310989 31.1142857,32.310989 L31.1093407,32.310989 Z M59.6521978,50.2565934 C57.4961538,50.2565934 56.4181319,51.5620879 56.4181319,54.1730769 C56.4181319,56.8532967 57.4961538,58.1934066 59.6521978,58.1934066 C61.8082418,58.1934066 62.8879121,56.8532967 62.8912088,54.1730769 C62.8912088,51.5620879 61.8115385,50.2565934 59.6521978,50.2565934 Z M16.5461538,32.5928571 C15.4040628,32.5586394 14.2711601,32.8066212 13.2478022,33.3148352 L13.2478022,40.1884615 C14.3081156,40.5521651 15.4257999,40.719734 16.5461538,40.682967 C18.7516484,40.682967 19.8543956,39.2159341 19.8543956,36.2818681 C19.8543956,33.8027473 18.7516484,32.5648352 16.5461538,32.5681319 L16.5461538,32.5928571 Z M85.5494505,54.5043956 C85.5494505,56.9967033 86.4857143,58.2428571 88.3582418,58.2428571 C89.3101979,58.2673991 90.2586581,58.1182596 91.1571429,57.8027473 L91.1571429,51.9626374 C90.2886742,51.5315334 89.3274039,51.3209371 88.3582418,51.3494505 C86.489011,51.3494505 85.5527473,52.4010989 85.5494505,54.5043956 Z M60.4137363,32.310989 C58.4917582,32.310989 57.45,33.3445055 57.2884615,35.4115385 L63.2967033,35.4115385 C63.421978,33.3445055 62.4626374,32.310989 60.4186813,32.310989 L60.4137363,32.310989 Z M94.1538462,44.5054945 L91.1373626,44.5054945 L91.1373626,49.4010989 C90.2514034,49.0109461 89.2915643,48.816954 88.3236264,48.8324176 C84.4730769,48.8324176 82.5461538,50.7428571 82.5428571,54.5637363 C82.5428571,58.710989 84.5521978,60.782967 88.5708791,60.7796703 C90.4548618,60.780203 92.3311415,60.5392282 94.1538462,60.0626374 L94.1538462,44.5054945 Z M74.9126374,29.2846154 C73.4209024,29.3345278 72.0116591,29.9812476 71.0010989,31.0796703 L70.556044,29.2846154 L67.8065934,29.2846154 L67.8065934,43.3582418 L71.3620879,43.3582418 L71.3620879,33.9379121 C72.2163413,32.8371612 73.5197439,32.1781986 74.9126374,32.1428571 L74.9126374,29.2846154 Z M74.9126374,46.3846154 C73.4211624,46.4356283 72.0123238,47.0821623 71.0010989,48.1796703 L70.556044,46.3846154 L67.8065934,46.3846154 L67.8065934,60.4631868 L71.3620879,60.4631868 L71.3620879,51.0379121 C72.2183052,49.940876 73.521411,49.2856933 74.9126374,49.2527473 L74.9126374,46.3846154 Z M67.7967033,26.2087912 L71.0307692,26.2087912 L71.0307692,17.6291209 C71.8108102,16.6299281 72.9975913,16.0329083 74.2648352,16.0021978 L74.2648352,13.3961538 C72.9057082,13.4403287 71.6212006,14.0282448 70.6994505,15.028022 L70.293956,13.3961538 L67.7967033,13.3961538 L67.7967033,26.2087912 Z M66.6989011,38.0769231 C67.5494505,32.3406593 65.5912088,29.4708791 60.8241758,29.4675824 C56.0571429,29.4642857 53.6686813,31.8065934 53.6587912,36.4945055 C53.6587912,41.3967033 56.2648352,43.8478022 61.4769231,43.8478022 C63.1218026,43.8785259 64.7655136,43.7409977 66.3824176,43.4373626 L66.3824176,40.5494505 C64.9460313,40.8200986 63.4874859,40.9558542 62.0258242,40.9549451 C58.8675824,40.9549451 57.2884615,39.9873626 57.2884615,38.0521978 L66.6840659,38.0521978 L66.6989011,38.0769231 Z M59.6324176,60.7302198 C63.9478022,60.7302198 66.1054945,58.556044 66.1054945,54.2076923 C66.1054945,49.8593407 63.9478022,47.6835165 59.6324176,47.6802198 C55.3203297,47.6802198 53.1659341,49.856044 53.1692308,54.2076923 C53.1725275,58.5593407 55.3269231,60.7335165 59.6324176,60.7302198 Z M49.1043956,60.3296703 L53.8763736,45.3857143 L50.1873626,45.3857143 L47.5813187,54.4153846 L44.6142857,45.3857143 L42.7796703,45.3857143 L39.7335165,54.4252747 L37.1423077,45.3906593 L33.3642857,45.3906593 L38.1758242,60.3296703 L41.1181319,60.3642857 L43.6796703,52.1208791 L46.2758242,60.3296703 L49.1043956,60.3296703 Z M24.3791209,36.4846154 C24.3791209,41.3868132 26.9868132,43.8379121 32.2021978,43.8379121 C33.8401382,43.8704118 35.4771363,43.7362045 37.0879121,43.4373626 L37.0879121,40.5494505 C35.6515057,40.8199556 34.1929738,40.95571 32.7313187,40.9549451 C29.5730769,40.9549451 27.993956,39.9873626 27.993956,38.0521978 L37.3895604,38.0521978 C38.2434066,32.3324176 36.2851648,29.4708791 31.5148352,29.4675824 C26.7445055,29.4642857 24.3576923,31.8065934 24.3543956,36.4945055 L24.3791209,36.4846154 Z M16.2741758,43.7142857 C21.0016484,43.7142857 23.3653846,41.2747253 23.3653846,36.3956044 C23.3653846,31.8956044 21.0956044,29.6456044 16.556044,29.6456044 C15.4164562,29.6269012 14.2862792,29.8546234 13.2428571,30.3131868 L13.2428571,24.5423077 L9.69230769,24.5423077 L9.69230769,42.8736264 C11.8412858,43.4341625 14.0532972,43.7166883 16.2741758,43.7142857 Z M38.8038462,39.5307692 C38.8038462,42.0593407 39.9824176,43.3252747 42.3395604,43.3285714 L45.2373626,43.3285714 L45.2373626,40.5098901 L44.0604396,40.5098901 C42.9263736,40.5098901 42.3593407,39.8505495 42.3593407,38.5318681 L42.3593407,32.0587912 L45.2423077,32.0587912 L45.2423077,29.2450549 L41.9686813,29.2450549 L41.4296703,26.9703297 L38.8038462,26.9703297 L38.8038462,39.5307692 Z M45.267033,13.1241758 C40.9549451,13.1241758 38.8005495,15.3 38.8038462,19.6516484 C38.8071429,24.0032967 40.9615385,26.1758242 45.267033,26.1692308 C49.5824176,26.1692308 51.7384615,23.9950549 51.7351648,19.6467033 C51.7318681,15.2983516 49.5758242,13.1241758 45.267033,13.1241758 Z M52.1901099,40.5840659 C51.0576923,40.5840659 50.4840659,39.9313187 50.4840659,38.606044 L50.4840659,32.1428571 L53.367033,32.1428571 L53.367033,29.3241758 L50.0983516,29.3241758 L49.5593407,27.0494505 L46.9384615,27.0494505 L46.9384615,39.6098901 C46.9384615,42.1384615 48.117033,43.4043956 50.4741758,43.4076923 L53.371978,43.4076923 L53.371978,40.589011 L52.1703297,40.589011 L52.1901099,40.5840659 Z M53.2879121,21.4417582 C53.2879121,24.6230769 54.7615385,26.2153846 57.7087912,26.2186813 C59.4042512,26.177305 61.0439566,25.6047918 62.3967033,24.5818681 L62.8021978,26.2087912 L65.3241758,26.2087912 L65.3241758,13.3961538 L62.0901099,13.3961538 L62.0901099,21.9708791 C60.9164835,23.0587912 59.7626374,23.6010989 58.6285714,23.5978022 C57.2241758,23.5978022 56.5269231,22.8857143 56.5269231,21.4714286 L56.5269231,13.3961538 L53.2879121,13.3961538 L53.2879121,21.4417582 Z M108.558791,62.8467033 C108.558791,62.9901099 108.558791,63.1335165 108.558791,63.2818681 C108.560485,66.836725 105.910599,69.8345543 102.382418,70.2692308 L102.031319,70.3038462 L35.9159341,76.6483516 L12.0807692,100.582418 L12.0807692,78.9527473 L8.12472527,79.3335165 L7.33351648,79.4076923 L7.0467033,79.4076923 C5.17956794,79.410317 3.38793493,78.6707782 2.06627907,77.3519048 C0.744623214,76.0330314 0.00131026848,74.2429609 0,72.3758242 L0,7.03681319 C-0.00021432121,3.17927271 3.1053112,0.0406627539 6.96263736,0 L7.8478022,0.0494505495 L81.0989011,3.83736264 L81.1681319,3.83736264 C78.6151031,6.39930327 77.2046478,9.88353797 77.2565934,13.5 L77.2565934,60.2802198 L80.4807692,60.2802198 L80.4807692,38.1214286 L92.25,38.1214286 C93.0510989,38.1214286 93.960989,38.1214286 94.767033,38.1214286 C96.0428571,38.1659341 97.3483516,38.1214286 98.6192308,38.1214286 C100.952817,38.2035772 103.285728,37.9402915 105.542308,37.3401099 L108.484615,62.0357143 L108.583516,62.8516484 L108.558791,62.8467033 Z M99.8505495,18.0989011 C99.159268,18.2158571 98.4536286,17.9964089 97.9506008,17.5080323 C97.4475729,17.0196557 97.2073688,16.3208092 97.3038462,15.6263736 C97.7291209,12.5604396 98.4362637,8.76758242 96.2901099,6.67582418 C92.6860941,3.18785054 86.9417869,3.26517775 83.432967,6.8489011 C80.3175824,10.0532967 80.4659341,14.3554945 80.4659341,19.9483516 C80.5153846,20.789011 80.4263736,23.4098901 80.4659341,24.2159341 L80.4659341,35.1395604 C83.5862637,35.1395604 89.55,35.1692308 92.9472527,35.1692308 C93.7681319,35.1692308 94.6087912,35.1395604 95.4445055,35.1692308 C100.824725,35.1692308 105.908242,35.4510989 109.028571,32.2467033 C112.516545,28.6426875 112.439218,22.8983803 108.855495,19.3895604 C106.704396,17.2978022 102.921429,17.6142857 99.8653846,18.1186813 L99.8505495,18.0989011 Z" id="Shape" fill-rule="nonzero"></path>
                        <path d="M119.902747,24.1467033 C120.405759,24.0461953 120.91784,23.9981359 121.430769,24.0032967 C122.647253,24.0032967 123.26044,24.5521978 123.26044,25.65 C123.26044,26.8565934 122.696703,27.4697802 121.584066,27.4697802 C121.305608,27.4695192 121.029964,27.4140543 120.773077,27.3065934 L120.773077,28.7901099 L119.902747,28.7901099 L119.902747,24.1467033 Z M120.773077,26.5598901 C121.023494,26.683804 121.299746,26.7465116 121.579121,26.7428571 C122.123077,26.7428571 122.395055,26.3752747 122.395055,25.6401099 C122.426854,25.3863686 122.338583,25.1323023 122.156309,24.9529368 C121.974035,24.7735713 121.718582,24.6893986 121.465385,24.7252747 C121.233554,24.7191088 121.001677,24.7356715 120.773077,24.7747253 L120.773077,26.5598901 Z M125.797253,28.0434066 C125.002747,28.0434066 124.603846,27.4862637 124.600549,26.371978 C124.600549,25.2791209 125.001099,24.7351648 125.797253,24.7351648 C126.593407,24.7351648 126.989011,25.2791209 126.989011,26.371978 C126.989011,27.4648352 126.593407,28.0434066 125.797253,28.0434066 Z M125.797253,23.9686813 C124.378022,23.9686813 123.670879,24.7747253 123.670879,26.3917582 C123.670879,28.0087912 124.382967,28.8098901 125.797253,28.8098901 C127.211538,28.8098901 127.918681,28.0038462 127.918681,26.3917582 C127.918681,24.7796703 127.206593,23.9686813 125.797253,23.9686813 Z M133.739011,23.9686813 L132.858791,23.9686813 L131.973626,26.8368132 L130.984615,23.9686813 L130.613736,23.9686813 L129.624725,26.8368132 L128.73956,23.9686813 L127.859341,23.9686813 L129.417033,28.7901099 L129.763187,28.7901099 L130.752198,25.7884615 L131.790659,28.7901099 L132.141758,28.7901099 L133.739011,23.9686813 Z M137.26978,24.7302198 L137.26978,23.9983516 L134.1,23.9983516 L134.1,28.8247253 L137.26978,28.8247253 L137.26978,28.0483516 L135,28.0483516 L135,26.7824176 L137.165934,26.7824176 L137.165934,25.9763736 L135,25.9763736 L135,24.7648352 L137.26978,24.7302198 Z M138.753297,24.7302198 C138.985035,24.7065312 139.218498,24.7048755 139.450549,24.7252747 C140.029121,24.7252747 140.36044,24.9972527 140.375275,25.5461538 C140.375275,26.1148352 140.048901,26.3769231 139.445604,26.3769231 C139.218937,26.3808912 138.992332,26.3660047 138.768132,26.3324176 L138.753297,24.7302198 Z M140.978571,27.5686813 C140.928927,27.2704113 140.765922,27.0028711 140.523626,26.821978 C140.998798,26.5644906 141.276396,26.0500608 141.230769,25.5115385 C141.230769,24.4879121 140.578022,23.9785714 139.406044,23.9785714 C138.893354,23.973503 138.38145,24.0198892 137.878022,24.117033 L137.878022,28.7851648 L138.758242,28.7851648 L138.758242,27.628022 L138.758242,27.0494505 C138.965934,27.0494505 139.178571,27.0494505 139.401099,27.0494505 L139.450549,27.0494505 C139.841209,27.1087912 139.999451,27.4549451 140.073626,27.7912088 C140.137032,28.1282969 140.22969,28.4592188 140.350549,28.7802198 L141.398901,28.7802198 C141.21022,28.3931709 141.069083,27.9847056 140.978571,27.5637363 L140.978571,27.5686813 Z M145.171978,24.7351648 L145.171978,23.9983516 L141.997253,23.9983516 L141.997253,28.8247253 L145.171978,28.8247253 L145.171978,28.0483516 L142.887363,28.0483516 L142.887363,26.7824176 L145.053297,26.7824176 L145.053297,25.9763736 L142.887363,25.9763736 L142.887363,24.7648352 L145.171978,24.7351648 Z M146.601099,28.0186813 C146.744411,28.0260599 146.888007,28.0260599 147.031319,28.0186813 C147.417041,28.0458331 147.789954,27.8742931 148.02033,27.5637363 C148.280475,27.1745271 148.405568,26.7106398 148.376374,26.2434066 C148.376374,25.2049451 147.931319,24.7005495 147.001648,24.7005495 L146.620879,24.7005495 L146.601099,28.0186813 Z M145.79011,28.7901099 L145.79011,24.032967 L145.879121,24.032967 C146.467582,24.032967 146.868132,23.9983516 147.016484,23.9983516 C147.61201,23.9713883 148.191505,24.1956513 148.613736,24.6164835 C149.016514,25.060119 149.22798,25.6447604 149.202198,26.2434066 C149.202198,27.9543956 148.396154,28.8247253 146.808791,28.8247253 L145.79011,28.7901099 Z M154.78022,27.4252747 C154.78022,27.9197802 154.473626,28.1818681 153.934615,28.1818681 C153.699746,28.1854233 153.464959,28.1705424 153.232418,28.1373626 L153.232418,26.6043956 C153.370879,26.6043956 153.637912,26.6043956 153.924725,26.6043956 C154.483516,26.643956 154.78022,26.9208791 154.78022,27.4104396 L154.78022,27.4252747 Z M153.825824,24.5818681 C154.32033,24.5818681 154.607143,24.75 154.617033,25.2148352 C154.617033,25.7093407 154.325275,25.8873626 153.815934,25.9269231 C153.611717,25.9390142 153.406964,25.9390142 153.202747,25.9269231 L153.202747,24.6313187 C153.41101,24.6049836 153.620874,24.5934162 153.830769,24.5967033 L153.825824,24.5818681 Z M155.581319,27.4153846 C155.627808,26.920779 155.374904,26.4460975 154.938462,26.2087912 C155.251373,25.9927903 155.420414,25.6224199 155.378571,25.2445055 C155.378571,24.3741758 154.824725,23.9983516 153.830769,23.9983516 C153.369835,23.9951119 152.909603,24.0348442 152.456044,24.117033 L152.456044,28.6813187 C152.945376,28.7709521 153.442103,28.8140018 153.93956,28.8098901 C155.017582,28.8098901 155.606044,28.3401099 155.610989,27.4054945 L155.581319,27.4153846 Z M159.537363,23.9538462 L158.587912,23.9538462 L157.47033,25.9664835 L156.377473,23.9538462 L155.388462,23.9538462 L156.995604,26.817033 L156.995604,28.7950549 L157.905495,28.7950549 L157.905495,26.817033 L159.537363,23.9538462 Z M120.164835,39.1450549 C120.795539,39.340368 121.452989,39.4354813 122.113187,39.4269231 C123.708791,39.4269231 124.504945,38.8236264 124.501648,37.617033 C124.501648,36.5456044 123.878571,36.0098901 122.632418,36.0098901 L121.643407,36.0098901 C121.173626,36.0098901 120.941209,35.7972527 120.941209,35.367033 C120.941209,34.8032967 121.435714,34.5214286 122.39011,34.5214286 C123.014391,34.5173853 123.634257,34.6262807 124.21978,34.8428571 L124.21978,33.8538462 C123.627743,33.6680716 123.010606,33.5746672 122.39011,33.5769231 C120.713736,33.5769231 119.878022,34.1604396 119.878022,35.3423077 C119.878022,36.4137363 120.466484,36.9494505 121.643407,36.9494505 L122.632418,36.9494505 C123.171429,36.9494505 123.443407,37.1620879 123.443407,37.5923077 C123.443407,38.1807692 122.998352,38.4725275 122.118132,38.4725275 C121.454662,38.4830698 120.794706,38.3741937 120.16978,38.1510989 L120.16978,39.1401099 L120.164835,39.1450549 Z M126.178022,33.6510989 L125.10989,33.6510989 L125.10989,39.4269231 L126.182967,39.4269231 L126.178022,33.6510989 Z M131.943956,39.4120879 L131.943956,33.660989 L130.870879,33.660989 C130.870879,33.660989 130.870879,37.2214286 130.91044,37.7752747 C130.707692,37.3945055 128.299451,33.660989 128.299451,33.660989 L127.181868,33.660989 L127.181868,39.4120879 L128.24011,39.4120879 C128.24011,39.4120879 128.24011,35.728022 128.215385,35.2087912 C128.423077,35.6043956 130.875824,39.4120879 130.875824,39.4120879 L131.943956,39.4120879 Z M137.383516,36.1582418 L135.44011,36.1582418 L135.44011,36.9741758 L136.37967,36.9741758 L136.37967,38.4230769 C136.160606,38.5585212 135.904833,38.6224645 135.647802,38.606044 C134.51044,38.606044 133.743956,37.8395604 133.743956,36.543956 C133.693781,36.0002789 133.88382,35.4618414 134.264145,35.0701073 C134.644469,34.6783731 135.177056,34.472506 135.721978,34.5065934 C136.295646,34.5222479 136.856422,34.6802847 137.353846,34.9664835 L137.353846,33.9774725 C136.850291,33.7292709 136.292876,33.6103103 135.731868,33.6313187 C133.912088,33.6313187 132.685714,34.7736264 132.675824,36.5983516 C132.612277,37.3857325 132.903238,38.1604245 133.469409,38.7112938 C134.035581,39.2621631 134.817952,39.5317946 135.603297,39.4467033 C136.21355,39.4657941 136.81884,39.331474 137.363736,39.056044 L137.383516,36.1582418 Z M141.077473,36.9543956 C141.077473,36.9543956 140.434615,34.832967 140.350549,34.4818681 C140.266484,34.8181319 139.643407,36.9543956 139.643407,36.9543956 L141.077473,36.9543956 Z M139.46044,37.7901099 L138.965934,39.4318681 L137.858242,39.4318681 L139.668132,33.6510989 L141.077473,33.6510989 L142.917033,39.4318681 L141.754945,39.4318681 L141.26044,37.7901099 L139.46044,37.7901099 Z M143.594505,33.8340659 C144.198684,33.7149388 144.813323,33.656954 145.429121,33.660989 C146.899451,33.660989 147.634615,34.3203297 147.634615,35.639011 C147.634615,37.0994505 146.96044,37.8313187 145.612088,37.8346154 C145.272066,37.8349329 144.935547,37.7659465 144.623077,37.6318681 L144.623077,39.4516484 L143.574725,39.4516484 L143.594505,33.8340659 Z M144.642857,36.7417582 C144.949865,36.8938133 145.289391,36.968509 145.631868,36.9593407 C146.27967,36.9593407 146.620879,36.5142857 146.620879,35.6340659 C146.66781,35.3248104 146.565677,35.0115824 146.345474,34.7894299 C146.12527,34.5672774 145.812954,34.4623892 145.503297,34.5065934 C145.22531,34.500129 144.947298,34.5183321 144.672527,34.560989 L144.642857,36.7417582 Z M150.700549,38.5467033 C149.754396,38.5467033 149.27967,37.8873626 149.276374,36.5686813 C149.276374,35.2730769 149.770879,34.6153846 150.700549,34.6153846 C151.63022,34.6153846 152.12967,35.2730769 152.12967,36.5686813 C152.12967,37.8642857 151.635165,38.5467033 150.700549,38.5467033 Z M150.700549,33.6807692 C149.015934,33.6807692 148.173626,34.6450549 148.173626,36.5736264 C148.173626,38.4972527 149.024176,39.4615385 150.700549,39.4615385 C152.376923,39.4615385 153.242308,38.4972527 153.242308,36.5736264 C153.242308,34.65 152.396703,33.6807692 150.700549,33.6807692 Z M155.071978,34.556044 C155.346546,34.5112576 155.624601,34.4913964 155.902747,34.4967033 C156.6,34.4967033 157.000549,34.828022 157.01044,35.4857143 C157.02033,36.1434066 156.61978,36.4747253 155.887912,36.4747253 C155.613273,36.4785007 155.338772,36.4603108 155.067033,36.4203297 L155.071978,34.556044 Z M157.767033,37.9879121 C157.717125,37.6331423 157.533057,37.3110234 157.252747,37.0879121 C157.828021,36.7763245 158.162495,36.1521036 158.103297,35.5005495 C158.103297,34.2692308 157.317033,33.656044 155.897802,33.656044 C155.280318,33.6508567 154.663922,33.7088509 154.058242,33.8291209 L154.058242,39.4664835 L155.111538,39.4664835 L155.111538,37.3054945 C155.358791,37.3054945 155.606044,37.3302198 155.887912,37.3302198 L155.957143,37.3302198 C156.451648,37.4043956 156.624725,37.8247253 156.708791,38.2252747 C156.786694,38.6383654 156.900872,39.0437818 157.05,39.4368132 L158.310989,39.4368132 C158.088178,38.963559 157.922187,38.4655868 157.816484,37.9532967 L157.767033,37.9879121 Z M162.820879,34.560989 L162.820879,33.6510989 L159.028022,33.6510989 L159.028022,39.4318681 L162.820879,39.4318681 L162.820879,38.5071429 L160.091209,38.5071429 L160.091209,36.989011 L162.682418,36.989011 L162.682418,36.0247253 L160.091209,36.0247253 L160.091209,34.5708791 L162.820879,34.560989 Z M120.980769,41.8945055 L119.907692,41.8945055 L119.907692,47.6950549 L120.980769,47.6950549 L120.980769,41.8945055 Z M126.563736,47.6851648 L126.563736,41.8895604 L125.475824,41.8895604 C125.475824,41.8895604 125.475824,45.4796703 125.515385,46.0384615 C125.312637,45.6576923 122.884615,41.8895604 122.884615,41.8895604 L121.757143,41.8895604 L121.757143,47.6851648 L122.82033,47.6851648 C122.82033,47.6851648 122.82033,43.9664835 122.795604,43.4423077 C123.013187,43.8428571 125.485714,47.6851648 125.485714,47.6851648 L126.563736,47.6851648 Z M131.632418,41.9043956 L127.325275,41.9043956 L127.325275,42.839011 L128.922527,42.839011 L128.922527,47.6851648 L129.980769,47.6851648 L129.980769,42.839011 L131.607692,42.839011 L131.632418,41.9043956 Z M136.236264,42.8241758 L136.236264,41.9043956 L132.438462,41.9043956 L132.438462,47.6950549 L136.236264,47.6950549 L136.236264,46.7752747 L133.516484,46.7752747 L133.516484,45.2472527 L136.117582,45.2472527 L136.117582,44.282967 L133.516484,44.282967 L133.516484,42.7994505 L136.236264,42.8241758 Z M138.318132,42.7747253 C138.592668,42.7296673 138.870748,42.7098044 139.148901,42.7153846 C139.856044,42.7153846 140.256593,43.0516484 140.261538,43.7043956 C140.261538,44.4065934 139.870879,44.7181319 139.139011,44.7181319 C138.862678,44.7240502 138.586356,44.7058493 138.313187,44.6637363 L138.318132,42.7747253 Z M141.018132,46.2362637 C140.959248,45.8750313 140.760223,45.551617 140.464286,45.3362637 C141.042107,45.0217395 141.37817,44.3942921 141.31978,43.739011 C141.31978,42.5027473 140.533516,41.8796703 139.109341,41.8796703 C138.48848,41.8775647 137.868949,41.9371987 137.25989,42.0576923 L137.25989,47.6901099 L138.323077,47.6901099 L138.323077,45.5538462 C138.57033,45.5538462 138.817582,45.5835165 139.104396,45.5835165 L139.173626,45.5835165 C139.668132,45.6576923 139.841209,46.078022 139.925275,46.4835165 C140.002958,46.894519 140.115451,47.2981711 140.261538,47.6901099 L141.527473,47.6901099 C141.304618,47.216873 141.138626,46.7188956 141.032967,46.2065934 L141.018132,46.2362637 Z M147.065934,47.6901099 L147.065934,41.8994505 L145.978022,41.8994505 C145.978022,41.8994505 145.978022,45.4895604 146.022527,46.0434066 C145.81978,45.6576923 143.391758,41.8994505 143.391758,41.8994505 L142.264286,41.8994505 L142.264286,47.6901099 L143.327473,47.6901099 C143.327473,47.6901099 143.327473,43.9763736 143.327473,43.4521978 C143.54011,43.8527473 146.007692,47.6901099 146.007692,47.6901099 L147.065934,47.6901099 Z M150.809341,45.2175824 C150.809341,45.2175824 150.156593,43.0813187 150.077473,42.7450549 C149.993407,43.0813187 149.365385,45.2175824 149.365385,45.2175824 L150.809341,45.2175824 Z M149.182418,46.0631868 L148.687912,47.7098901 L147.56044,47.7098901 L149.385165,41.8994505 L150.824176,41.8994505 L152.663736,47.7098901 L151.496703,47.7098901 L151.002198,46.0631868 L149.182418,46.0631868 Z M156.758242,41.8895604 L152.446154,41.8895604 L152.446154,42.8241758 L154.043407,42.8241758 L154.043407,47.6752747 L155.096703,47.6752747 L155.096703,42.8192308 L156.758242,42.8192308 L156.758242,41.8895604 Z M158.686813,41.8895604 L157.613736,41.8895604 L157.613736,47.6950549 L158.686813,47.6950549 L158.686813,41.8895604 Z M161.975275,46.8346154 C161.020879,46.8346154 160.536264,46.1620879 160.536264,44.8120879 C160.536264,43.4620879 161.030769,42.8340659 161.975275,42.8340659 C162.91978,42.8340659 163.424176,43.4917582 163.424176,44.8120879 C163.424176,46.1324176 162.92967,46.8346154 161.975275,46.8346154 Z M161.975275,41.8895604 C160.267582,41.8895604 159.413736,42.8637363 159.413736,44.8120879 C159.413736,46.7604396 160.267582,47.732967 161.975275,47.7296703 C163.686264,47.7296703 164.541758,46.7571429 164.541758,44.8120879 C164.541758,42.867033 163.686264,41.8928571 161.975275,41.8895604 Z M170.09011,47.6703297 L170.09011,41.8895604 L169.012088,41.8895604 C169.012088,41.8895604 169.012088,45.4796703 169.051648,46.0335165 C168.848901,45.6527473 166.415934,41.8895604 166.415934,41.8895604 L165.263736,41.8895604 L165.263736,47.6851648 L166.331868,47.6851648 C166.331868,47.6851648 166.331868,43.9714286 166.307143,43.4472527 C166.524725,43.8428571 168.997253,47.6851648 168.997253,47.6851648 L170.09011,47.6703297 Z M173.853297,45.1978022 C173.853297,45.1978022 173.205495,43.0714286 173.121429,42.7252747 C173.037363,43.0565934 172.419231,45.1978022 172.419231,45.1978022 L173.853297,45.1978022 Z M172.231319,46.0384615 L171.736813,47.6752747 L170.604396,47.6752747 L172.424176,41.8895604 L173.833516,41.8895604 L175.673077,47.6752747 L174.510989,47.6752747 L174.016484,46.0384615 L172.231319,46.0384615 Z M177.255495,46.8148352 L177.255495,41.8697802 L176.182418,41.8697802 L176.182418,47.6554945 L180,47.6554945 L180,46.8197802 L177.255495,46.8148352 Z M119.937363,50.6324176 L119.937363,56.4527473 L120.995604,56.4527473 L120.995604,53.9802198 L123.616484,53.9802198 L123.616484,52.9912088 L121.01044,52.9912088 L121.01044,51.5076923 L123.75989,51.5076923 L123.75989,50.582967 L119.937363,50.6324176 Z M126.697253,55.528022 C125.737912,55.528022 125.268132,54.8554945 125.273077,53.5153846 C125.278022,52.1752747 125.767582,51.567033 126.712088,51.571978 C127.656593,51.5769231 128.136264,52.2296703 128.126374,53.55 C128.116484,54.8703297 127.631868,55.5527473 126.692308,55.528022 L126.697253,55.528022 Z M126.692308,50.6472527 C124.994505,50.6472527 124.142308,51.6098901 124.135714,53.5351648 C124.135714,55.4637363 124.976374,56.432967 126.667582,56.4428571 C128.358791,56.4527473 129.209341,55.4884615 129.219231,53.5598901 C129.229121,51.6313187 128.383516,50.6571429 126.692308,50.6521978 L126.692308,50.6472527 Z M129.743407,50.6225275 L129.743407,53.9010989 C129.743407,55.7010989 130.593956,56.4379121 131.919231,56.4379121 C133.244505,56.4379121 134.198901,55.6565934 134.198901,53.8961538 L134.198901,50.6373626 L133.16044,50.6373626 L133.16044,53.9653846 C133.16044,55.082967 132.71044,55.6021978 131.958791,55.6021978 C131.207143,55.6021978 130.786813,55.1076923 130.786813,53.9653846 L130.786813,50.6373626 L129.743407,50.6225275 Z M139.841209,56.4527473 L139.841209,50.6324176 L138.753297,50.6324176 C138.753297,50.6324176 138.753297,54.2373626 138.792857,54.7912088 C138.585165,54.4104396 136.147253,50.6324176 136.147253,50.6324176 L135,50.6324176 L135,56.4478022 L136.073077,56.4478022 C136.073077,56.4478022 136.073077,52.7142857 136.073077,52.1950549 C136.280769,52.5906593 138.763187,56.4478022 138.763187,56.4478022 L139.841209,56.4527473 Z M141.700549,55.5230769 C141.848901,55.5230769 142.021978,55.5478022 142.195055,55.5478022 C142.652159,55.5697248 143.090018,55.3619276 143.362088,54.993956 C143.675142,54.5258883 143.827845,53.9688692 143.797253,53.4065934 C143.797253,52.1554945 143.248352,51.5472527 142.130769,51.5472527 L141.675824,51.5769231 L141.700549,55.5230769 Z M140.711538,56.4527473 L140.711538,50.6818681 L140.815385,50.6818681 C141.527473,50.6521978 141.992308,50.6423077 142.19011,50.6423077 C142.907009,50.6085984 143.605065,50.8777714 144.113736,51.3840659 C144.60112,51.9240371 144.85375,52.6356712 144.815934,53.3620879 C144.815934,55.4291209 143.826923,56.4725275 141.932967,56.4725275 L140.711538,56.4527473 Z M148.05,53.9505495 C148.05,53.9505495 147.402198,51.8241758 147.323077,51.478022 C147.239011,51.8142857 146.610989,53.9505495 146.610989,53.9505495 L148.05,53.9505495 Z M146.428022,54.7961538 L145.933516,56.4428571 L144.815934,56.4428571 L146.635714,50.6423077 L148.05,50.6423077 L149.894505,56.4428571 L148.732418,56.4428571 L148.237912,54.7961538 L146.428022,54.7961538 Z M149.231868,50.6423077 L149.231868,51.5769231 L150.824176,51.5769231 L150.824176,56.428022 L151.882418,56.428022 L151.882418,51.5769231 L153.499451,51.5769231 L153.499451,50.6423077 L149.231868,50.6423077 Z M154.231319,56.4576923 L155.309341,56.4576923 L155.309341,50.6373626 L154.236264,50.6373626 L154.231319,56.4576923 Z M158.627473,55.5428571 C157.673077,55.5428571 157.193407,54.8752747 157.193407,53.5302198 C157.193407,52.1851648 157.687912,51.5521978 158.627473,51.5521978 C159.567033,51.5521978 160.066484,52.2098901 160.066484,53.5302198 C160.066484,54.8505495 159.571978,55.5428571 158.627473,55.5428571 Z M158.627473,50.6423077 C156.923077,50.6423077 156.072527,51.6131868 156.075824,53.5549451 C156.079121,55.4967033 156.92967,56.4659341 158.627473,56.4626374 C160.335165,56.4626374 161.187363,55.4934066 161.184066,53.5549451 C161.180769,51.6164835 160.328571,50.6456044 158.627473,50.6423077 Z M166.851099,56.4626374 L166.851099,50.6324176 L165.758242,50.6324176 C165.758242,50.6324176 165.758242,54.2472527 165.802747,54.806044 C165.6,54.4203297 163.152198,50.6324176 163.152198,50.6324176 L162.01978,50.6324176 L162.01978,56.4626374 L163.092857,56.4626374 C163.092857,56.4626374 163.092857,52.7241758 163.092857,52.2 C163.305495,52.6005495 165.792857,56.4626374 165.792857,56.4626374 L166.851099,56.4626374 Z" id="Shape" fill-rule="nonzero"></path>
                    </g>
                </g>
            </g>
        </g>
    </g>
</svg>