<svg height="80" viewBox="0 0 143 80" width="143" xmlns="http://www.w3.org/2000/svg"><path d="M35.898 18.73c-1.71 0-2.565-1.062-2.565-3.185 0-2.07.855-3.106 2.565-3.106s2.566 1.036 2.569 3.106c0 2.126-.857 3.187-2.569 3.184zm-11.227 6.894c-1.525 0-2.35.82-2.475 2.458h4.757c.1-1.639-.66-2.458-2.278-2.458zm22.635 14.23c-1.71 0-2.565 1.036-2.565 3.107 0 2.125.855 3.188 2.565 3.188s2.566-1.063 2.569-3.188c0-2.07-.857-3.106-2.57-3.106zM13.122 25.848a5.51 5.51 0 0 0-2.616.573v5.45a7.31 7.31 0 0 0 2.616.393c1.749 0 2.623-1.164 2.623-3.49 0-1.966-.874-2.948-2.623-2.946zm54.721 17.377c0 1.976.743 2.964 2.228 2.964a6.216 6.216 0 0 0 2.22-.349v-4.631a4.682 4.682 0 0 0-2.22-.486c-1.483 0-2.225.834-2.228 2.502zm-19.933-17.6c-1.524 0-2.35.82-2.479 2.458h4.765c.1-1.639-.661-2.458-2.282-2.458zm26.757 9.67h-2.392v3.882a5.325 5.325 0 0 0-2.232-.45c-3.053 0-4.582 1.515-4.584 4.545 0 3.288 1.593 4.932 4.78 4.929 1.494 0 2.982-.19 4.428-.569zm-15.26-12.07c-1.182.04-2.3.552-3.101 1.423l-.353-1.423h-2.18v11.16h2.82v-7.47a3.682 3.682 0 0 1 2.815-1.424zm0 13.56c-1.182.04-2.3.553-3.101 1.424l-.353-1.424h-2.18V47.95h2.82v-7.474a3.682 3.682 0 0 1 2.815-1.416zm-5.642-16h2.564V13.98a3.357 3.357 0 0 1 2.565-1.29v-2.066a4.024 4.024 0 0 0-2.827 1.294l-.322-1.294h-1.98zm-.87 9.412c.674-4.549-.88-6.825-4.66-6.827-3.78-.003-5.674 1.855-5.682 5.572 0 3.888 2.067 5.832 6.2 5.832a19.141 19.141 0 0 0 3.89-.326v-2.29a18.627 18.627 0 0 1-3.455.321c-2.504 0-3.757-.767-3.757-2.302h7.451zM47.29 48.161c3.422 0 5.134-1.724 5.134-5.173s-1.712-5.174-5.134-5.176c-3.42 0-5.128 1.725-5.125 5.176s1.71 5.175 5.125 5.173zm-8.349-.318l3.784-11.85H39.8l-2.067 7.16-2.353-7.16h-1.455L31.51 43.16l-2.055-7.165h-2.996l3.816 11.847 2.333.028 2.031-6.538 2.059 6.51zm-19.608-18.91c0 3.888 2.068 5.832 6.204 5.832 1.3.025 2.597-.081 3.875-.318v-2.29c-1.14.214-2.296.322-3.455.321-2.505 0-3.757-.767-3.757-2.302h7.451c.677-4.535-.876-6.805-4.659-6.807-3.783-.003-5.676 1.855-5.678 5.572zm-6.427 5.734c3.749 0 5.623-1.935 5.623-5.804 0-3.569-1.8-5.353-5.4-5.353a6.275 6.275 0 0 0-2.627.53v-4.577H7.686V34a20.57 20.57 0 0 0 5.22.667zm17.867-3.318c0 2.005.934 3.01 2.803 3.012h2.299v-2.236h-.934c-.9 0-1.349-.522-1.349-1.568v-5.133h2.286v-2.232h-2.596l-.427-1.804h-2.082zm5.125-20.941c-3.42 0-5.128 1.725-5.125 5.176s1.71 5.174 5.125 5.169c3.422 0 5.132-1.724 5.13-5.173-.003-3.448-1.713-5.172-5.13-5.172zm5.49 21.776c-.898 0-1.353-.517-1.353-1.568V25.49h2.287v-2.235h-2.593l-.427-1.804h-2.078v9.96c0 2.006.934 3.01 2.803 3.013h2.298v-2.236h-.952zm.87-15.18c0 2.523 1.17 3.786 3.507 3.788a6.424 6.424 0 0 0 3.717-1.298l.322 1.29h2v-10.16h-2.565v6.8c-.93.862-1.846 1.292-2.745 1.29-1.114 0-1.667-.565-1.667-1.687v-6.403H42.26zM86.09 49.839v.345a5.58 5.58 0 0 1-4.898 5.541l-.278.028-52.432 5.031L9.58 79.764V62.613l-3.137.302-.627.059h-.228A5.58 5.58 0 0 1 0 57.396V5.58A5.58 5.58 0 0 1 5.522 0l.702.04 58.09 3.003h.055a10.64 10.64 0 0 0-3.102 7.663v37.098h2.557V30.23h11.329c1.012.036 2.047 0 3.055 0 1.85.066 3.7-.143 5.49-.62l2.333 19.585.079.647zm-6.906-35.486a1.745 1.745 0 0 1-2.02-1.96c.338-2.432.899-5.44-.803-7.099a7.231 7.231 0 0 0-10.196.137c-2.47 2.542-2.353 5.953-2.353 10.389.039.666-.032 2.745 0 3.384v8.663c2.474 0 7.204.023 9.898.023.65 0 1.317-.023 1.98 0 4.267 0 8.298.224 10.773-2.317a7.231 7.231 0 0 0-.138-10.197c-1.705-1.658-4.705-1.407-7.129-1.007zm15.902 4.796c.4-.08.805-.118 1.212-.114.965 0 1.451.436 1.451 1.306 0 .957-.447 1.443-1.33 1.443-.22 0-.439-.044-.643-.13v1.177h-.69zm.69 1.914a1.4 1.4 0 0 0 .64.145c.431 0 .647-.292.647-.875a.651.651 0 0 0-.738-.725 2.816 2.816 0 0 0-.549.04zm3.985 1.176c-.63 0-.947-.442-.95-1.325 0-.867.318-1.298.95-1.298.631 0 .945.431.945 1.298s-.314 1.325-.945 1.325zm0-3.231c-1.126 0-1.686.64-1.686 1.921 0 1.283.564 1.918 1.686 1.918 1.121 0 1.682-.64 1.682-1.918s-.565-1.921-1.682-1.921zm6.298 0h-.698l-.702 2.274-.784-2.274h-.295l-.784 2.274-.702-2.274h-.698l1.235 3.823h.275l.784-2.38.824 2.38h.278zm2.8.604v-.58h-2.514v3.827h2.514v-.616h-1.8V21.24h1.717v-.64h-1.717v-.96zm1.176 0c.184-.019.37-.02.553-.004.46 0 .722.216.734.65 0 .452-.26.66-.738.66a3.21 3.21 0 0 1-.537-.036zm1.765 2.25a.93.93 0 0 0-.36-.591c.376-.205.596-.613.56-1.04 0-.811-.518-1.215-1.447-1.215a6.078 6.078 0 0 0-1.212.11v3.701h.698v-1.376h.55c.309.047.435.322.493.588.05.268.124.53.22.785h.831a4.231 4.231 0 0 1-.333-.965zm3.325-2.246v-.585h-2.517v3.828h2.517v-.616h-1.811V21.24h1.717v-.64h-1.717v-.96zm1.134 2.604c.113.005.227.005.341 0a.898.898 0 0 0 .784-.361c.207-.309.306-.677.283-1.047 0-.824-.353-1.224-1.09-1.224h-.302zm-.643.611V19.06h.07c.467 0 .785-.028.902-.028a1.69 1.69 0 0 1 1.267.49c.32.352.487.816.467 1.29 0 1.358-.64 2.048-1.898 2.048zm7.13-1.082c0 .392-.244.6-.671.6a3.56 3.56 0 0 1-.557-.035v-1.216h.549c.443.031.678.251.678.64zm-.758-2.255c.392 0 .62.133.628.502 0 .392-.232.533-.636.565a3.94 3.94 0 0 1-.486 0v-1.028c.165-.02.332-.03.498-.027zm1.392 2.247a.984.984 0 0 0-.51-.957.82.82 0 0 0 .35-.764c0-.69-.44-.989-1.228-.989a5.882 5.882 0 0 0-1.09.094v3.62a6.27 6.27 0 0 0 1.176.102c.855 0 1.322-.372 1.326-1.114zm3.138-2.745h-.753l-.887 1.596-.866-1.596h-.785l1.275 2.27v1.57h.722v-1.57zM95.294 31.043c.5.155 1.022.23 1.545.224 1.266 0 1.897-.479 1.894-1.436 0-.85-.494-1.274-1.482-1.274h-.784c-.373 0-.557-.169-.557-.51 0-.447.392-.67 1.149-.67.495-.004.986.083 1.45.254v-.784a4.788 4.788 0 0 0-1.45-.22c-1.33 0-1.992.463-1.992 1.4 0 .85.466 1.275 1.4 1.275h.784c.427 0 .643.169.643.51 0 .466-.353.698-1.05.698a4.388 4.388 0 0 1-1.546-.255v.784zm4.769-4.357h-.847v4.58h.85zm4.572 4.569v-4.56h-.85s0 2.823.03 3.262c-.16-.302-2.07-3.263-2.07-3.263h-.886v4.56h.839s0-2.92-.02-3.332c.165.313 2.11 3.333 2.11 3.333zm4.314-2.58h-1.541v.647h.745v1.149a.984.984 0 0 1-.58.145c-.902 0-1.51-.608-1.51-1.636a1.482 1.482 0 0 1 1.568-1.615c.455.012.9.137 1.294.364v-.784a2.682 2.682 0 0 0-1.286-.274c-1.443 0-2.415.905-2.423 2.353a2.102 2.102 0 0 0 2.321 2.258c.484.015.964-.091 1.396-.31zm2.93.63s-.51-1.681-.577-1.96c-.067.267-.56 1.96-.56 1.96zm-1.283.664l-.392 1.302h-.879l1.436-4.585h1.117l1.46 4.585h-.922l-.392-1.302zm3.279-3.138c.479-.094.966-.14 1.454-.137 1.166 0 1.75.523 1.75 1.569 0 1.158-.535 1.738-1.604 1.74a1.979 1.979 0 0 1-.785-.16v1.443h-.831zm.83 2.306c.244.12.514.18.785.173.514 0 .785-.353.785-1.051a.784.784 0 0 0-.887-.894 3.73 3.73 0 0 0-.659.043zm4.805 1.432c-.75 0-1.127-.523-1.13-1.569 0-1.027.393-1.549 1.13-1.549s1.133.522 1.133 1.549-.392 1.569-1.133 1.569zm0-3.86c-1.336 0-2.004.766-2.004 2.295 0 1.525.674 2.29 2.004 2.29s2.015-.765 2.015-2.29-.67-2.294-2.015-2.294zm3.466.695c.218-.036.439-.051.66-.047.552 0 .87.263.878.784.008.522-.31.784-.89.784a4.086 4.086 0 0 1-.651-.043zm2.138 2.721a1.11 1.11 0 0 0-.408-.713c.456-.247.721-.742.674-1.26 0-.976-.623-1.462-1.749-1.462a7.18 7.18 0 0 0-1.458.137v4.471h.835v-1.714c.196 0 .392.02.616.02h.054c.393.059.53.392.597.71.061.327.152.649.27.96h1a5.255 5.255 0 0 1-.392-1.176zm4.008-2.717v-.722h-3.008v4.585h3.008v-.734h-2.165v-1.204h2.055v-.764h-2.055v-1.153zm-33.18 5.816h-.852v4.6h.851zm4.427 4.592V33.22h-.863s0 2.847.031 3.29c-.16-.302-2.086-3.29-2.086-3.29h-.894v4.596h.843s0-2.95-.02-3.365c.173.318 2.134 3.365 2.134 3.365zm4.02-4.585h-3.416v.742h1.266v3.843h.84v-3.843h1.29zm3.65.73v-.73h-3.012v4.593h3.012v-.73h-2.157v-1.212h2.063v-.764h-2.063V33.94zm1.651-.04a3.62 3.62 0 0 1 .659-.046c.56 0 .878.266.882.784 0 .557-.31.804-.89.804a3.883 3.883 0 0 1-.655-.043zm2.141 2.746a1.102 1.102 0 0 0-.439-.714 1.31 1.31 0 0 0 .679-1.267c0-.98-.624-1.474-1.753-1.474a7.427 7.427 0 0 0-1.467.14v4.468h.843v-1.695c.196 0 .392.024.62.024h.055c.392.059.529.392.596.714.061.326.15.646.266.957h1.004a5.251 5.251 0 0 1-.392-1.177zm4.796 1.153v-4.593h-.862s0 2.848.035 3.287c-.16-.306-2.086-3.287-2.086-3.287h-.894v4.593h.843v-3.361c.168.317 2.125 3.36 2.125 3.36zm2.97-1.961s-.519-1.694-.581-1.961c-.067.267-.565 1.96-.565 1.96zm-1.291.67l-.392 1.306h-.894l1.447-4.608h1.14l1.46 4.608h-.926l-.392-1.306zm6.008-3.31h-3.42v.742h1.267v3.847h.835v-3.851h1.318zm1.53 0h-.852v4.605h.851zm2.607 3.922c-.757 0-1.141-.533-1.141-1.604s.392-1.568 1.141-1.568 1.149.521 1.149 1.568-.392 1.604-1.149 1.604zm0-3.921c-1.354 0-2.031.772-2.031 2.317s.677 2.317 2.031 2.314c1.357 0 2.035-.771 2.035-2.314s-.678-2.315-2.035-2.317zm6.435 4.584V33.22h-.855s0 2.847.032 3.286c-.161-.302-2.09-3.286-2.09-3.286h-.914v4.596h.847s0-2.945-.02-3.361c.173.314 2.134 3.36 2.134 3.36zm2.985-1.96s-.514-1.687-.58-1.962c-.067.263-.558 1.961-.558 1.961zm-1.287.666l-.392 1.298h-.898l1.443-4.588h1.118l1.459 4.588h-.922L138 36.51zm3.985.615v-3.921h-.851v4.588h3.027v-.663zm-45.455 3.028v4.616h.839v-1.961h2.078v-.784h-2.066v-1.177h2.18v-.733zm5.36 3.882c-.76 0-1.133-.533-1.129-1.596.004-1.063.392-1.545 1.141-1.541.75.004 1.13.522 1.122 1.569-.008 1.047-.392 1.588-1.137 1.568zm-.003-3.87c-1.347 0-2.023.763-2.028 2.29 0 1.53.667 2.298 2.008 2.306 1.341.008 2.016-.757 2.024-2.286s-.663-2.302-2.004-2.306zm2.42-.02v2.6c0 1.428.674 2.012 1.725 2.012 1.05 0 1.808-.62 1.808-2.016v-2.584h-.824v2.64c0 .885-.357 1.297-.953 1.297s-.93-.392-.93-1.298v-2.64zm8.007 4.624v-4.616h-.863s0 2.859.032 3.298c-.165-.302-2.098-3.298-2.098-3.298h-.91v4.612h.85v-3.373c.166.314 2.134 3.373 2.134 3.373zm1.475-.738c.117 0 .254.02.392.02.362.017.71-.147.925-.44.248-.37.37-.812.345-1.258 0-.992-.435-1.475-1.321-1.475l-.361.024zm-.785.738v-4.577h.083c.564-.023.933-.031 1.09-.031a2.027 2.027 0 0 1 1.525.588c.387.428.587.993.557 1.569 0 1.639-.784 2.466-2.286 2.466zm5.82-1.985s-.514-1.686-.577-1.96c-.066.266-.564 1.96-.564 1.96zm-1.286.67l-.393 1.307h-.886l1.443-4.6h1.122l1.463 4.6h-.922l-.392-1.306zm2.223-3.293v.741h1.263v3.847h.84v-3.847h1.281v-.741zm3.965 4.612h.855v-4.616h-.851zm3.486-.726c-.757 0-1.137-.53-1.137-1.596s.392-1.569 1.137-1.569 1.141.522 1.141 1.569-.392 1.596-1.14 1.596zm0-3.886c-1.352 0-2.026.77-2.023 2.31.002 1.54.677 2.308 2.023 2.305 1.354 0 2.03-.768 2.028-2.305-.003-1.538-.679-2.308-2.028-2.31zm6.522 4.615v-4.623h-.867s0 2.867.035 3.31c-.16-.306-2.102-3.31-2.102-3.31h-.898v4.623h.851v-3.38c.169.318 2.141 3.38 2.141 3.38z" fill="#fff"/></svg>